<svg width="77" height="99" viewBox="0 0 77 99" fill="none" xmlns="http://www.w3.org/2000/svg">
<g filter="url(#filter0_d_934_4292)">
<rect x="3" y="3" width="71" height="92.3" rx="7.1" fill="white" fill-opacity="0.1" shape-rendering="crispEdges"/>
<rect x="4.065" y="4.065" width="68.87" height="90.17" rx="6.035" stroke="white" stroke-width="2.13" shape-rendering="crispEdges"/>
<g filter="url(#filter1_i_934_4292)">
<rect x="9.38965" y="10.1001" width="57.51" height="78.81" rx="3.55" fill="#1B1515" fill-opacity="0.08"/>
</g>
<rect x="9.74465" y="10.4551" width="56.8" height="78.1" rx="3.195" stroke="#C2C2C2" stroke-width="0.71"/>
<g filter="url(#filter2_d_934_4292)">
<path d="M37.612 24.117C38.3809 23.6731 39.3281 23.6731 40.097 24.117L59.6049 35.3799C60.3738 35.8238 60.8474 36.6442 60.8474 37.532V60.0578C60.8474 60.9456 60.3738 61.766 59.6049 62.2099L40.097 73.4728C39.3281 73.9167 38.3809 73.9167 37.612 73.4728L18.1041 62.2099C17.3352 61.766 16.8616 60.9456 16.8616 60.0578V37.532C16.8616 36.6442 17.3352 35.8238 18.1041 35.3799L37.612 24.117Z" stroke="white" stroke-width="2.13" shape-rendering="crispEdges"/>
</g>
<g filter="url(#filter3_d_934_4292)">
<path d="M37.9929 61.2201C38.235 61.2201 38.4672 61.1213 38.6384 60.9455C38.8096 60.7696 38.9058 60.5311 38.9058 60.2824V50.4361H42.1008C42.3429 50.4361 42.5751 50.3373 42.7463 50.1615C42.9175 49.9856 43.0137 49.7471 43.0137 49.4984C43.0137 49.2497 42.9175 49.0112 42.7463 48.8353C42.5751 48.6595 42.3429 48.5607 42.1008 48.5607H38.9058V38.3909L42.1008 40.2861C42.2047 40.3476 42.3193 40.3875 42.4382 40.4035C42.5571 40.4195 42.6779 40.4113 42.7937 40.3794C42.9095 40.3474 43.018 40.2923 43.1131 40.2173C43.2082 40.1422 43.2879 40.0487 43.3478 39.9419C43.4688 39.7266 43.5016 39.4706 43.439 39.2304C43.3763 38.9902 43.2233 38.7853 43.0137 38.661L39.3622 36.4957C39.2235 36.4134 39.066 36.3701 38.9058 36.3701C38.7456 36.3701 38.5881 36.4134 38.4494 36.4957L37.5365 37.0368C37.3977 37.1191 37.2825 37.2375 37.2024 37.38C37.1223 37.5226 37.0801 37.6843 37.0801 37.8489V60.2824C37.0801 60.5311 37.1763 60.7696 37.3474 60.9455C37.5186 61.1213 37.7508 61.2201 37.9929 61.2201Z" fill="white"/>
</g>
<g filter="url(#filter4_d_934_4292)">
<path d="M44.681 42.3497L46.2024 43.1502V56.7466C46.2024 56.9915 46.3093 57.2263 46.4995 57.3995C46.6897 57.5726 46.9477 57.6699 47.2167 57.6699C47.4857 57.6699 47.7437 57.5726 47.9339 57.3995C48.1241 57.2263 48.231 56.9915 48.231 56.7466V44.2157L49.7524 45.0152C49.8678 45.0768 49.9955 45.117 50.128 45.1335C50.2605 45.15 50.3953 45.1425 50.5247 45.1113C50.654 45.0802 50.7753 45.0261 50.8815 44.9522C50.9878 44.8782 51.0769 44.7858 51.1438 44.6804C51.2107 44.5749 51.254 44.4585 51.2712 44.3377C51.2885 44.217 51.2793 44.0943 51.2443 43.9768C51.2092 43.8593 51.149 43.7493 51.067 43.653C50.9851 43.5568 50.883 43.4763 50.7667 43.4161L45.6953 40.7505C45.4625 40.63 45.1867 40.5983 44.9282 40.6621C44.6697 40.726 44.4495 40.8804 44.3156 41.0915C44.1817 41.3027 44.1449 41.5535 44.2134 41.7892C44.2818 42.0249 44.4499 42.2264 44.681 42.3497Z" fill="white"/>
</g>
<g filter="url(#filter5_d_934_4292)">
<path d="M28.1159 57.2452C28.3748 57.2452 28.6231 57.1479 28.8062 56.9748C28.9893 56.8017 29.0921 56.5669 29.0921 56.3221V49.1148L33.0674 58.5107C33.1519 58.7096 33.3069 58.8745 33.5058 58.9771C33.7048 59.0798 33.9353 59.1137 34.1579 59.0733C34.3804 59.0328 34.5812 58.9203 34.7256 58.7552C34.8701 58.5901 34.9493 58.3826 34.9496 58.1683V41.553C34.9496 41.3081 34.8468 41.0734 34.6637 40.9002C34.4806 40.7271 34.2323 40.6299 33.9734 40.6299C33.7145 40.6299 33.4662 40.7271 33.2831 40.9002C33.1 41.0734 32.9971 41.3081 32.9971 41.553V53.3747L29.0219 43.9797C28.9374 43.7808 28.7824 43.616 28.5835 43.5133C28.3845 43.4107 28.154 43.3767 27.9314 43.4172C27.7089 43.4577 27.5081 43.5701 27.3637 43.7353C27.2192 43.9004 27.14 44.1079 27.1396 44.3222V56.3221C27.1396 56.5669 27.2425 56.8017 27.4256 56.9748C27.6087 57.1479 27.857 57.2452 28.1159 57.2452Z" fill="white"/>
</g>
<g filter="url(#filter6_d_934_4292)">
<path d="M24.2894 58.9741L37.4453 66.5249C37.8739 66.7709 38.36 66.9004 38.8549 66.9004C39.3497 66.9004 39.8359 66.7709 40.2644 66.5249L53.4203 58.9741C53.8491 58.7279 54.2052 58.3739 54.4526 57.9475C54.7001 57.5211 54.8302 57.0375 54.8299 56.5452V41.7555C54.8302 41.2633 54.7001 40.7796 54.4526 40.3533C54.2052 39.9269 53.8491 39.5728 53.4203 39.3267L40.2644 31.7759C39.8359 31.5299 39.3497 31.4004 38.8549 31.4004C38.36 31.4004 37.8739 31.5299 37.4453 31.7759L24.2894 39.3267C23.8606 39.5728 23.5046 39.9269 23.2571 40.3533C23.0097 40.7796 22.8796 41.2633 22.8799 41.7555V56.5471C22.8799 57.039 23.0102 57.5223 23.2576 57.9483C23.505 58.3743 23.8609 58.7281 24.2894 58.9741ZM24.7593 41.7555C24.7593 41.5916 24.8027 41.4305 24.8852 41.2885C24.9677 41.1465 25.0863 41.0285 25.2291 40.9466L38.385 33.3957C38.5279 33.3137 38.6899 33.2705 38.8549 33.2705C39.0198 33.2705 39.1819 33.3137 39.3247 33.3957L52.4806 40.9466C52.6235 41.0285 52.7421 41.1465 52.8246 41.2885C52.907 41.4305 52.9505 41.5916 52.9505 41.7555V56.5471C52.9505 56.7111 52.907 56.8722 52.8246 57.0142C52.7421 57.1562 52.6235 57.2741 52.4806 57.3561L39.3247 64.907C39.1819 64.9889 39.0198 65.0321 38.8549 65.0321C38.6899 65.0321 38.5279 64.9889 38.385 64.907L25.2291 57.3561C25.0863 57.2741 24.9677 57.1562 24.8852 57.0142C24.8027 56.8722 24.7593 56.7111 24.7593 56.5471V41.7555Z" fill="white"/>
</g>
</g>
<defs>
<filter id="filter0_d_934_4292" x="0.16" y="0.16" width="76.68" height="97.9798" filterUnits="userSpaceOnUse" color-interpolation-filters="sRGB">
<feFlood flood-opacity="0" result="BackgroundImageFix"/>
<feColorMatrix in="SourceAlpha" type="matrix" values="0 0 0 0 0 0 0 0 0 0 0 0 0 0 0 0 0 0 127 0" result="hardAlpha"/>
<feOffset/>
<feGaussianBlur stdDeviation="1.42"/>
<feComposite in2="hardAlpha" operator="out"/>
<feColorMatrix type="matrix" values="0 0 0 0 1 0 0 0 0 1 0 0 0 0 1 0 0 0 0.25 0"/>
<feBlend mode="normal" in2="BackgroundImageFix" result="effect1_dropShadow_934_4292"/>
<feBlend mode="normal" in="SourceGraphic" in2="effect1_dropShadow_934_4292" result="shape"/>
</filter>
<filter id="filter1_i_934_4292" x="9.38965" y="10.1001" width="57.5098" height="78.8101" filterUnits="userSpaceOnUse" color-interpolation-filters="sRGB">
<feFlood flood-opacity="0" result="BackgroundImageFix"/>
<feBlend mode="normal" in="SourceGraphic" in2="BackgroundImageFix" result="shape"/>
<feColorMatrix in="SourceAlpha" type="matrix" values="0 0 0 0 0 0 0 0 0 0 0 0 0 0 0 0 0 0 127 0" result="hardAlpha"/>
<feOffset/>
<feGaussianBlur stdDeviation="7.1"/>
<feComposite in2="hardAlpha" operator="arithmetic" k2="-1" k3="1"/>
<feColorMatrix type="matrix" values="0 0 0 0 0.845833 0 0 0 0 0.845833 0 0 0 0 0.845833 0 0 0 0.25 0"/>
<feBlend mode="normal" in2="shape" result="effect1_innerShadow_934_4292"/>
</filter>
<filter id="filter2_d_934_4292" x="10.1169" y="17.0392" width="57.4752" height="63.5114" filterUnits="userSpaceOnUse" color-interpolation-filters="sRGB">
<feFlood flood-opacity="0" result="BackgroundImageFix"/>
<feColorMatrix in="SourceAlpha" type="matrix" values="0 0 0 0 0 0 0 0 0 0 0 0 0 0 0 0 0 0 127 0" result="hardAlpha"/>
<feOffset/>
<feGaussianBlur stdDeviation="2.84"/>
<feComposite in2="hardAlpha" operator="out"/>
<feColorMatrix type="matrix" values="0 0 0 0 1 0 0 0 0 1 0 0 0 0 1 0 0 0 0.25 0"/>
<feBlend mode="normal" in2="BackgroundImageFix" result="effect1_dropShadow_934_4292"/>
<feBlend mode="normal" in="SourceGraphic" in2="effect1_dropShadow_934_4292" result="shape"/>
</filter>
<filter id="filter3_d_934_4292" x="34.2401" y="33.5301" width="12.0696" height="30.5301" filterUnits="userSpaceOnUse" color-interpolation-filters="sRGB">
<feFlood flood-opacity="0" result="BackgroundImageFix"/>
<feColorMatrix in="SourceAlpha" type="matrix" values="0 0 0 0 0 0 0 0 0 0 0 0 0 0 0 0 0 0 127 0" result="hardAlpha"/>
<feOffset/>
<feGaussianBlur stdDeviation="1.42"/>
<feComposite in2="hardAlpha" operator="out"/>
<feColorMatrix type="matrix" values="0 0 0 0 1 0 0 0 0 1 0 0 0 0 1 0 0 0 0.25 0"/>
<feBlend mode="normal" in2="BackgroundImageFix" result="effect1_dropShadow_934_4292"/>
<feBlend mode="normal" in="SourceGraphic" in2="effect1_dropShadow_934_4292" result="shape"/>
</filter>
<filter id="filter4_d_934_4292" x="41.3397" y="37.7899" width="12.7796" height="22.72" filterUnits="userSpaceOnUse" color-interpolation-filters="sRGB">
<feFlood flood-opacity="0" result="BackgroundImageFix"/>
<feColorMatrix in="SourceAlpha" type="matrix" values="0 0 0 0 0 0 0 0 0 0 0 0 0 0 0 0 0 0 127 0" result="hardAlpha"/>
<feOffset/>
<feGaussianBlur stdDeviation="1.42"/>
<feComposite in2="hardAlpha" operator="out"/>
<feColorMatrix type="matrix" values="0 0 0 0 1 0 0 0 0 1 0 0 0 0 1 0 0 0 0.25 0"/>
<feBlend mode="normal" in2="BackgroundImageFix" result="effect1_dropShadow_934_4292"/>
<feBlend mode="normal" in="SourceGraphic" in2="effect1_dropShadow_934_4292" result="shape"/>
</filter>
<filter id="filter5_d_934_4292" x="24.2996" y="37.7899" width="13.4896" height="24.14" filterUnits="userSpaceOnUse" color-interpolation-filters="sRGB">
<feFlood flood-opacity="0" result="BackgroundImageFix"/>
<feColorMatrix in="SourceAlpha" type="matrix" values="0 0 0 0 0 0 0 0 0 0 0 0 0 0 0 0 0 0 127 0" result="hardAlpha"/>
<feOffset/>
<feGaussianBlur stdDeviation="1.42"/>
<feComposite in2="hardAlpha" operator="out"/>
<feColorMatrix type="matrix" values="0 0 0 0 1 0 0 0 0 1 0 0 0 0 1 0 0 0 0.25 0"/>
<feBlend mode="normal" in2="BackgroundImageFix" result="effect1_dropShadow_934_4292"/>
<feBlend mode="normal" in="SourceGraphic" in2="effect1_dropShadow_934_4292" result="shape"/>
</filter>
<filter id="filter6_d_934_4292" x="20.0399" y="28.5604" width="37.6302" height="41.18" filterUnits="userSpaceOnUse" color-interpolation-filters="sRGB">
<feFlood flood-opacity="0" result="BackgroundImageFix"/>
<feColorMatrix in="SourceAlpha" type="matrix" values="0 0 0 0 0 0 0 0 0 0 0 0 0 0 0 0 0 0 127 0" result="hardAlpha"/>
<feOffset/>
<feGaussianBlur stdDeviation="1.42"/>
<feComposite in2="hardAlpha" operator="out"/>
<feColorMatrix type="matrix" values="0 0 0 0 1 0 0 0 0 1 0 0 0 0 1 0 0 0 0.25 0"/>
<feBlend mode="normal" in2="BackgroundImageFix" result="effect1_dropShadow_934_4292"/>
<feBlend mode="normal" in="SourceGraphic" in2="effect1_dropShadow_934_4292" result="shape"/>
</filter>
</defs>
</svg>
