<svg width="77" height="99" viewBox="0 0 77 99" fill="none" xmlns="http://www.w3.org/2000/svg">
<g filter="url(#filter0_d_934_4281)">
<rect x="3" y="3" width="71" height="92.3" rx="7.1" fill="white" fill-opacity="0.1" shape-rendering="crispEdges"/>
<rect x="4.065" y="4.065" width="68.87" height="90.17" rx="6.035" stroke="white" stroke-width="2.13" shape-rendering="crispEdges"/>
<g filter="url(#filter1_i_934_4281)">
<rect x="9.38965" y="10.1001" width="57.51" height="78.81" rx="3.55" fill="#1B1515" fill-opacity="0.08"/>
</g>
<rect x="9.74465" y="10.4551" width="56.8" height="78.1" rx="3.195" stroke="#C2C2C2" stroke-width="0.71"/>
<g clip-path="url(#clip0_934_4281)">
<g filter="url(#filter2_d_934_4281)">
<path d="M46.0657 32.6427H55.6951C55.8775 32.6427 56.0525 32.5702 56.1815 32.4413C56.3105 32.3123 56.3829 32.1373 56.3829 31.9549C56.3829 31.7725 56.3105 31.5975 56.1815 31.4685C56.0525 31.3396 55.8775 31.2671 55.6951 31.2671H46.0657C45.8833 31.2671 45.7084 31.3396 45.5794 31.4685C45.4504 31.5975 45.3779 31.7725 45.3779 31.9549C45.3779 32.1373 45.4504 32.3123 45.5794 32.4413C45.7084 32.5702 45.8833 32.6427 46.0657 32.6427Z" fill="white"/>
</g>
<g filter="url(#filter3_d_934_4281)">
<path d="M46.0657 36.0817H55.6951C55.8775 36.0817 56.0525 36.0092 56.1815 35.8802C56.3105 35.7512 56.3829 35.5763 56.3829 35.3939C56.3829 35.2114 56.3105 35.0365 56.1815 34.9075C56.0525 34.7785 55.8775 34.7061 55.6951 34.7061H46.0657C45.8833 34.7061 45.7084 34.7785 45.5794 34.9075C45.4504 35.0365 45.3779 35.2114 45.3779 35.3939C45.3779 35.5763 45.4504 35.7512 45.5794 35.8802C45.7084 36.0092 45.8833 36.0817 46.0657 36.0817Z" fill="white"/>
</g>
<g filter="url(#filter4_d_934_4281)">
<path d="M46.0657 39.5211H55.6951C55.8775 39.5211 56.0525 39.4487 56.1815 39.3197C56.3105 39.1907 56.3829 39.0157 56.3829 38.8333C56.3829 38.6509 56.3105 38.476 56.1815 38.347C56.0525 38.218 55.8775 38.1455 55.6951 38.1455H46.0657C45.8833 38.1455 45.7084 38.218 45.5794 38.347C45.4504 38.476 45.3779 38.6509 45.3779 38.8333C45.3779 39.0157 45.4504 39.1907 45.5794 39.3197C45.7084 39.4487 45.8833 39.5211 46.0657 39.5211Z" fill="white"/>
</g>
<g filter="url(#filter5_d_934_4281)">
<path d="M55.6951 44.3352H53.4398L52.9081 42.7416C52.8736 42.6383 52.815 42.5447 52.7372 42.4685C52.6594 42.3923 52.5646 42.3356 52.4607 42.3032C52.3567 42.2708 52.2466 42.2635 52.1392 42.2819C52.0319 42.3004 51.9305 42.3441 51.8434 42.4094L49.8556 43.8998L49.469 42.7416C49.4345 42.6383 49.3759 42.5447 49.2981 42.4685C49.2203 42.3923 49.1256 42.3356 49.0216 42.3032C48.9177 42.2708 48.8075 42.2635 48.7002 42.2819C48.5929 42.3004 48.4915 42.3441 48.4043 42.4094L45.6531 44.4728C45.5071 44.5822 45.4106 44.7452 45.3848 44.9258C45.359 45.1064 45.406 45.2898 45.5155 45.4357C45.6249 45.5817 45.7879 45.6781 45.9685 45.7039C46.1491 45.7297 46.3325 45.6827 46.4784 45.5733L48.4662 44.0828L48.8528 45.2411C48.8873 45.3444 48.9459 45.4379 49.0237 45.5142C49.1015 45.5904 49.1962 45.647 49.3002 45.6795C49.4041 45.7119 49.5143 45.7192 49.6216 45.7007C49.7289 45.6823 49.8303 45.6386 49.9175 45.5733L51.9053 44.0828L52.2911 45.2404C52.3368 45.3774 52.4244 45.4966 52.5415 45.581C52.6587 45.6655 52.7995 45.7109 52.9439 45.7109H55.6951C55.8775 45.7109 56.0525 45.6384 56.1815 45.5094C56.3105 45.3804 56.3829 45.2055 56.3829 45.023C56.3829 44.8406 56.3105 44.6657 56.1815 44.5367C56.0525 44.4077 55.8775 44.3352 55.6951 44.3352Z" fill="white"/>
</g>
<g filter="url(#filter6_d_934_4281)">
<path d="M46.0657 48.4621H55.6951C55.8775 48.4621 56.0525 48.3896 56.1815 48.2606C56.3105 48.1316 56.3829 47.9567 56.3829 47.7742C56.3829 47.5918 56.3105 47.4169 56.1815 47.2879C56.0525 47.1589 55.8775 47.0864 55.6951 47.0864H46.0657C45.8833 47.0864 45.7084 47.1589 45.5794 47.2879C45.4504 47.4169 45.3779 47.5918 45.3779 47.7742C45.3779 47.9567 45.4504 48.1316 45.5794 48.2606C45.7084 48.3896 45.8833 48.4621 46.0657 48.4621Z" fill="white"/>
</g>
<g filter="url(#filter7_d_934_4281)">
<path d="M59.8224 27.1396H17.178C16.9956 27.1396 16.8207 27.2121 16.6917 27.3411C16.5627 27.4701 16.4902 27.645 16.4902 27.8275V58.779C16.4902 58.9614 16.5627 59.1364 16.6917 59.2654C16.8207 59.3944 16.9956 59.4668 17.178 59.4668H41.2659L42.5363 61.0433L42.4208 63.3942C42.413 63.5511 42.4591 63.7058 42.5514 63.8328C42.6438 63.9598 42.7768 64.0514 42.9284 64.0924L44.0027 64.384V70.4718C44.0027 70.582 44.0292 70.6906 44.0799 70.7885C44.1306 70.8863 44.2041 70.9706 44.2942 71.0341C44.3843 71.0976 44.4883 71.1385 44.5975 71.1534C44.7067 71.1683 44.8179 71.1568 44.9217 71.1198L49.5052 69.4821L54.0888 71.1191C54.1926 71.1561 54.3037 71.1676 54.4128 71.1528C54.522 71.1379 54.6259 71.097 54.716 71.0336C54.806 70.9701 54.8796 70.886 54.9303 70.7883C54.9811 70.6905 55.0076 70.582 55.0077 70.4718V64.3847L56.0842 64.0931C56.2355 64.0517 56.3681 63.9598 56.4601 63.8327C56.552 63.7056 56.5978 63.5509 56.5897 63.3942L56.4721 61.0433L57.7445 59.4668H59.8224C60.0048 59.4668 60.1798 59.3944 60.3088 59.2654C60.4378 59.1364 60.5102 58.9614 60.5102 58.779V27.8275C60.5102 27.645 60.4378 27.4701 60.3088 27.3411C60.1798 27.2121 60.0048 27.1396 59.8224 27.1396ZM53.6321 69.4951L49.7363 68.1044C49.5869 68.0507 49.4235 68.0507 49.2741 68.1044L45.3784 69.4951V64.9831L46.4851 66.6779C46.5709 66.8094 46.6992 66.9077 46.8486 66.9562C46.998 67.0048 47.1595 67.0007 47.3063 66.9447L49.5052 66.1063L51.7062 66.9447C51.853 67.0007 52.0145 67.0048 52.164 66.9562C52.3134 66.9077 52.4417 66.8094 52.5275 66.6779L53.6321 64.9831V69.4951ZM55.2388 60.3837C55.133 60.5151 55.0791 60.6808 55.0875 60.8493L55.19 62.9128L53.2002 63.4506C53.0372 63.4948 52.8962 63.5974 52.804 63.7388L51.6767 65.4652L49.7508 64.7307C49.5931 64.6706 49.4188 64.6706 49.2611 64.7307L47.3352 65.4652L46.2037 63.7354C46.1115 63.594 45.9705 63.4914 45.8076 63.4472L43.8177 62.9093L43.9202 60.8459C43.9286 60.6774 43.8747 60.5117 43.7689 60.3802L42.4785 58.779L43.7716 57.1744C43.8775 57.043 43.9313 56.8772 43.9229 56.7087L43.8205 54.6453L45.8103 54.1074C45.9733 54.0632 46.1143 53.9606 46.2065 53.8192L47.3338 52.0928L49.2597 52.8274C49.4174 52.8875 49.5917 52.8875 49.7494 52.8274L51.6753 52.0928L52.8026 53.8192C52.8948 53.9606 53.0358 54.0632 53.1988 54.1074L55.1886 54.6453L55.0861 56.7087C55.0778 56.8772 55.1316 57.043 55.2375 57.1744L56.5319 58.779L55.2388 60.3837ZM59.1346 58.0912H57.7445L56.4742 56.5147L56.5897 54.1638C56.5975 54.007 56.5514 53.8522 56.459 53.7252C56.3667 53.5982 56.2337 53.5066 56.0821 53.4657L53.8123 52.8508L52.5254 50.8802C52.4396 50.7486 52.3113 50.6504 52.1619 50.6018C52.0125 50.5533 51.851 50.5573 51.7042 50.6133L49.5052 51.4518L47.3042 50.6133C47.1575 50.5573 46.9959 50.5533 46.8465 50.6018C46.6971 50.6504 46.5688 50.7486 46.483 50.8802L45.1961 52.8508L42.9263 53.4657C42.7751 53.507 42.6426 53.5988 42.5506 53.7257C42.4587 53.8527 42.4129 54.0072 42.4208 54.1638L42.5384 56.5147L41.2659 58.0912H17.8659V28.5153H59.1346V58.0912Z" fill="white"/>
</g>
<g filter="url(#filter8_d_934_4281)">
<path d="M49.5051 53.9644C48.5529 53.9644 47.622 54.2467 46.8302 54.7758C46.0385 55.3048 45.4213 56.0568 45.0569 56.9365C44.6925 57.8163 44.5972 58.7844 44.7829 59.7183C44.9687 60.6523 45.4273 61.5102 46.1006 62.1835C46.774 62.8569 47.6319 63.3154 48.5658 63.5012C49.4998 63.687 50.4679 63.5916 51.3476 63.2272C52.2274 62.8628 52.9793 62.2457 53.5084 61.4539C54.0374 60.6622 54.3198 59.7313 54.3198 58.779C54.3182 57.5026 53.8104 56.2789 52.9078 55.3764C52.0052 54.4738 50.7816 53.966 49.5051 53.9644ZM49.5051 62.2181C48.8249 62.2181 48.16 62.0164 47.5945 61.6385C47.0289 61.2606 46.5881 60.7235 46.3278 60.0951C46.0675 59.4667 45.9994 58.7752 46.1321 58.1081C46.2648 57.441 46.5924 56.8282 47.0733 56.3473C47.5543 55.8663 48.1671 55.5388 48.8342 55.4061C49.5013 55.2734 50.1928 55.3415 50.8212 55.6018C51.4496 55.8621 51.9867 56.3029 52.3646 56.8684C52.7425 57.434 52.9442 58.0989 52.9442 58.779C52.9431 59.6908 52.5804 60.5649 51.9357 61.2096C51.291 61.8543 50.4169 62.217 49.5051 62.2181Z" fill="white"/>
</g>
<path d="M36.796 34.9502H23.164C22.712 34.9502 22.2786 35.1372 21.9591 35.4701C21.6395 35.803 21.46 36.2544 21.46 36.7252V50.9252C21.46 51.396 21.6395 51.8474 21.9591 52.1803C22.2786 52.5132 22.712 52.7002 23.164 52.7002H36.796C37.2479 52.7002 37.6813 52.5132 38.0009 52.1803C38.3204 51.8474 38.5 51.396 38.5 50.9252V36.7252C38.5 36.2544 38.3204 35.803 38.0009 35.4701C37.6813 35.1372 37.2479 34.9502 36.796 34.9502ZM36.4552 37.0802V49.8815C35.764 48.3462 34.5889 47.1037 33.1255 46.3608C33.7415 45.7139 34.1599 44.8915 34.3279 43.9973C34.4959 43.1031 34.406 42.1771 34.0696 41.3361C33.7332 40.495 33.1654 39.7765 32.4376 39.271C31.7098 38.7656 30.8547 38.4959 29.98 38.4959C29.1053 38.4959 28.2501 38.7656 27.5223 39.271C26.7946 39.7765 26.2267 40.495 25.8903 41.3361C25.5539 42.1771 25.464 43.1031 25.6321 43.9973C25.8001 44.8915 26.2184 45.7139 26.8344 46.3608C25.371 47.1037 24.1959 48.3462 23.5048 49.8815V37.0802H36.4552ZM27.5944 43.1152C27.5944 42.6237 27.7343 42.1433 27.9964 41.7346C28.2585 41.3259 28.6311 41.0074 29.067 40.8194C29.5029 40.6313 29.9826 40.5821 30.4454 40.6779C30.9081 40.7738 31.3332 41.0105 31.6668 41.358C32.0005 41.7056 32.2277 42.1484 32.3197 42.6304C32.4118 43.1124 32.3645 43.6121 32.184 44.0662C32.0034 44.5202 31.6976 44.9083 31.3053 45.1814C30.913 45.4545 30.4518 45.6002 29.98 45.6002C29.3473 45.6002 28.7405 45.3384 28.2931 44.8724C27.8457 44.4063 27.5944 43.7743 27.5944 43.1152ZM29.98 47.7302C31.1493 47.7253 32.2841 48.1427 33.1911 48.9115C33.7305 49.3668 34.176 49.931 34.5007 50.5702H25.4592C25.784 49.931 26.2294 49.3668 26.7688 48.9115C27.6758 48.1427 28.8106 47.7253 29.98 47.7302Z" fill="white"/>
</g>
</g>
<defs>
<filter id="filter0_d_934_4281" x="0.16" y="0.16" width="76.68" height="97.9798" filterUnits="userSpaceOnUse" color-interpolation-filters="sRGB">
<feFlood flood-opacity="0" result="BackgroundImageFix"/>
<feColorMatrix in="SourceAlpha" type="matrix" values="0 0 0 0 0 0 0 0 0 0 0 0 0 0 0 0 0 0 127 0" result="hardAlpha"/>
<feOffset/>
<feGaussianBlur stdDeviation="1.42"/>
<feComposite in2="hardAlpha" operator="out"/>
<feColorMatrix type="matrix" values="0 0 0 0 1 0 0 0 0 1 0 0 0 0 1 0 0 0 0.25 0"/>
<feBlend mode="normal" in2="BackgroundImageFix" result="effect1_dropShadow_934_4281"/>
<feBlend mode="normal" in="SourceGraphic" in2="effect1_dropShadow_934_4281" result="shape"/>
</filter>
<filter id="filter1_i_934_4281" x="9.38965" y="10.1001" width="57.5098" height="78.8101" filterUnits="userSpaceOnUse" color-interpolation-filters="sRGB">
<feFlood flood-opacity="0" result="BackgroundImageFix"/>
<feBlend mode="normal" in="SourceGraphic" in2="BackgroundImageFix" result="shape"/>
<feColorMatrix in="SourceAlpha" type="matrix" values="0 0 0 0 0 0 0 0 0 0 0 0 0 0 0 0 0 0 127 0" result="hardAlpha"/>
<feOffset/>
<feGaussianBlur stdDeviation="7.1"/>
<feComposite in2="hardAlpha" operator="arithmetic" k2="-1" k3="1"/>
<feColorMatrix type="matrix" values="0 0 0 0 0.845833 0 0 0 0 0.845833 0 0 0 0 0.845833 0 0 0 0.25 0"/>
<feBlend mode="normal" in2="shape" result="effect1_innerShadow_934_4281"/>
</filter>
<filter id="filter2_d_934_4281" x="42.5379" y="28.4271" width="16.6849" height="7.05549" filterUnits="userSpaceOnUse" color-interpolation-filters="sRGB">
<feFlood flood-opacity="0" result="BackgroundImageFix"/>
<feColorMatrix in="SourceAlpha" type="matrix" values="0 0 0 0 0 0 0 0 0 0 0 0 0 0 0 0 0 0 127 0" result="hardAlpha"/>
<feOffset/>
<feGaussianBlur stdDeviation="1.42"/>
<feComposite in2="hardAlpha" operator="out"/>
<feColorMatrix type="matrix" values="0 0 0 0 1 0 0 0 0 1 0 0 0 0 1 0 0 0 0.25 0"/>
<feBlend mode="normal" in2="BackgroundImageFix" result="effect1_dropShadow_934_4281"/>
<feBlend mode="normal" in="SourceGraphic" in2="effect1_dropShadow_934_4281" result="shape"/>
</filter>
<filter id="filter3_d_934_4281" x="42.5379" y="31.8661" width="16.6849" height="7.05549" filterUnits="userSpaceOnUse" color-interpolation-filters="sRGB">
<feFlood flood-opacity="0" result="BackgroundImageFix"/>
<feColorMatrix in="SourceAlpha" type="matrix" values="0 0 0 0 0 0 0 0 0 0 0 0 0 0 0 0 0 0 127 0" result="hardAlpha"/>
<feOffset/>
<feGaussianBlur stdDeviation="1.42"/>
<feComposite in2="hardAlpha" operator="out"/>
<feColorMatrix type="matrix" values="0 0 0 0 1 0 0 0 0 1 0 0 0 0 1 0 0 0 0.25 0"/>
<feBlend mode="normal" in2="BackgroundImageFix" result="effect1_dropShadow_934_4281"/>
<feBlend mode="normal" in="SourceGraphic" in2="effect1_dropShadow_934_4281" result="shape"/>
</filter>
<filter id="filter4_d_934_4281" x="42.5379" y="35.3055" width="16.6849" height="7.05549" filterUnits="userSpaceOnUse" color-interpolation-filters="sRGB">
<feFlood flood-opacity="0" result="BackgroundImageFix"/>
<feColorMatrix in="SourceAlpha" type="matrix" values="0 0 0 0 0 0 0 0 0 0 0 0 0 0 0 0 0 0 127 0" result="hardAlpha"/>
<feOffset/>
<feGaussianBlur stdDeviation="1.42"/>
<feComposite in2="hardAlpha" operator="out"/>
<feColorMatrix type="matrix" values="0 0 0 0 1 0 0 0 0 1 0 0 0 0 1 0 0 0 0.25 0"/>
<feBlend mode="normal" in2="BackgroundImageFix" result="effect1_dropShadow_934_4281"/>
<feBlend mode="normal" in="SourceGraphic" in2="effect1_dropShadow_934_4281" result="shape"/>
</filter>
<filter id="filter5_d_934_4281" x="42.5379" y="39.432" width="16.6849" height="9.11896" filterUnits="userSpaceOnUse" color-interpolation-filters="sRGB">
<feFlood flood-opacity="0" result="BackgroundImageFix"/>
<feColorMatrix in="SourceAlpha" type="matrix" values="0 0 0 0 0 0 0 0 0 0 0 0 0 0 0 0 0 0 127 0" result="hardAlpha"/>
<feOffset/>
<feGaussianBlur stdDeviation="1.42"/>
<feComposite in2="hardAlpha" operator="out"/>
<feColorMatrix type="matrix" values="0 0 0 0 1 0 0 0 0 1 0 0 0 0 1 0 0 0 0.25 0"/>
<feBlend mode="normal" in2="BackgroundImageFix" result="effect1_dropShadow_934_4281"/>
<feBlend mode="normal" in="SourceGraphic" in2="effect1_dropShadow_934_4281" result="shape"/>
</filter>
<filter id="filter6_d_934_4281" x="42.5379" y="44.2464" width="16.6849" height="7.05549" filterUnits="userSpaceOnUse" color-interpolation-filters="sRGB">
<feFlood flood-opacity="0" result="BackgroundImageFix"/>
<feColorMatrix in="SourceAlpha" type="matrix" values="0 0 0 0 0 0 0 0 0 0 0 0 0 0 0 0 0 0 127 0" result="hardAlpha"/>
<feOffset/>
<feGaussianBlur stdDeviation="1.42"/>
<feComposite in2="hardAlpha" operator="out"/>
<feColorMatrix type="matrix" values="0 0 0 0 1 0 0 0 0 1 0 0 0 0 1 0 0 0 0.25 0"/>
<feBlend mode="normal" in2="BackgroundImageFix" result="effect1_dropShadow_934_4281"/>
<feBlend mode="normal" in="SourceGraphic" in2="effect1_dropShadow_934_4281" result="shape"/>
</filter>
<filter id="filter7_d_934_4281" x="13.6502" y="24.2996" width="49.6995" height="49.7" filterUnits="userSpaceOnUse" color-interpolation-filters="sRGB">
<feFlood flood-opacity="0" result="BackgroundImageFix"/>
<feColorMatrix in="SourceAlpha" type="matrix" values="0 0 0 0 0 0 0 0 0 0 0 0 0 0 0 0 0 0 127 0" result="hardAlpha"/>
<feOffset/>
<feGaussianBlur stdDeviation="1.42"/>
<feComposite in2="hardAlpha" operator="out"/>
<feColorMatrix type="matrix" values="0 0 0 0 1 0 0 0 0 1 0 0 0 0 1 0 0 0 0.25 0"/>
<feBlend mode="normal" in2="BackgroundImageFix" result="effect1_dropShadow_934_4281"/>
<feBlend mode="normal" in="SourceGraphic" in2="effect1_dropShadow_934_4281" result="shape"/>
</filter>
<filter id="filter8_d_934_4281" x="41.8504" y="51.1244" width="15.3089" height="15.3094" filterUnits="userSpaceOnUse" color-interpolation-filters="sRGB">
<feFlood flood-opacity="0" result="BackgroundImageFix"/>
<feColorMatrix in="SourceAlpha" type="matrix" values="0 0 0 0 0 0 0 0 0 0 0 0 0 0 0 0 0 0 127 0" result="hardAlpha"/>
<feOffset/>
<feGaussianBlur stdDeviation="1.42"/>
<feComposite in2="hardAlpha" operator="out"/>
<feColorMatrix type="matrix" values="0 0 0 0 1 0 0 0 0 1 0 0 0 0 1 0 0 0 0.25 0"/>
<feBlend mode="normal" in2="BackgroundImageFix" result="effect1_dropShadow_934_4281"/>
<feBlend mode="normal" in="SourceGraphic" in2="effect1_dropShadow_934_4281" result="shape"/>
</filter>
<clipPath id="clip0_934_4281">
<rect width="44.02" height="44.02" fill="white" transform="translate(16.4902 27.1396)"/>
</clipPath>
</defs>
</svg>
