<svg width="60" height="60" viewBox="0 0 60 60" fill="none" xmlns="http://www.w3.org/2000/svg">
<rect width="60" height="60" rx="30" fill="#404040"/>
<path d="M28.908 15.1914C29.5219 14.9686 30.1926 14.9395 30.8244 15.1084L31.092 15.1914L41.9809 19.1542C42.533 19.3551 43.0149 19.7041 43.3705 20.1606C43.726 20.6171 43.9406 21.1623 43.9891 21.7325L44 21.9816V30.0776C43.9999 32.5238 43.3193 34.9246 42.0301 37.0266C40.7408 39.1286 38.8906 40.8538 36.6749 42.0201L36.2611 42.2299L31.0438 44.7615C30.7565 44.9007 30.4427 44.9809 30.1221 44.997C29.8014 45.0131 29.4808 44.9648 29.1802 44.8551L28.9562 44.7615L23.7389 42.2299C21.4843 41.1359 19.5759 39.4714 18.2151 37.4122C16.8544 35.353 16.0917 32.9754 16.0078 30.5305L16 30.0776V21.9816C16 21.4097 16.1674 20.8495 16.4827 20.3663C16.7981 19.8831 17.2483 19.4968 17.7811 19.2523L18.0191 19.1542L28.908 15.1914ZM30 18.0189L19.1111 21.9816V30.0776C19.1112 31.9722 19.636 33.8319 20.6308 35.462C21.6256 37.0922 23.0537 38.4328 24.7656 39.3436L25.1311 39.5292L30 41.8918L34.8689 39.5292C36.6154 38.682 38.0949 37.3945 39.1527 35.8018C40.2104 34.2091 40.8074 32.3697 40.8811 30.4762L40.8889 30.0776V21.9816L30 18.0189ZM35.3402 24.9042C35.6202 24.6335 35.9958 24.4763 36.3908 24.4646C36.7859 24.4529 37.1707 24.5875 37.4671 24.8412C37.7635 25.0949 37.9494 25.4485 37.9868 25.8303C38.0243 26.2121 37.9106 26.5935 37.6689 26.8969L37.5398 27.0388L29.398 34.9416C29.1014 35.2293 28.7063 35.4014 28.2876 35.425C27.8689 35.4487 27.4559 35.3223 27.1269 35.0699L26.9776 34.9416L23.238 31.3125C22.956 31.0414 22.7915 30.6761 22.778 30.2912C22.7646 29.9062 22.9032 29.5309 23.1656 29.2419C23.428 28.953 23.7942 28.7723 24.1894 28.7368C24.5846 28.7013 24.9788 28.8138 25.2913 29.0511L25.4376 29.1764L28.1878 31.8454L35.3402 24.9042Z" fill="white"/>
</svg>