<svg width="207" height="108" viewBox="0 0 207 108" fill="none" xmlns="http://www.w3.org/2000/svg">
                    <path d="M71.4602 76.1776L9.39313 99.7785M69.0541 68.9561L6.98709 92.557M66.3043 61.3907L4.23732 84.9917M64.3872 87.0549L53.8875 57.6416M54.1096 90.8376L43.6098 61.4243M44.1417 94.9642L33.642 65.5509M33.8301 98.7469L23.3303 69.3336M23.1747 102.53L12.675 73.1162M135.54 31.8224L197.607 8.22148M137.946 39.0439L200.013 15.443M140.696 46.6093L202.763 23.0083M142.613 20.9451L153.113 50.3584M152.89 17.1624L163.39 46.5757M162.858 13.0358L173.358 42.4491M173.17 9.25314L183.67 38.6664M183.825 5.47045L194.325 34.8838M91.9322 22.9687L124.413 28.2753L136.06 59.0707L115.226 84.5597L82.7453 79.2532L71.0984 48.4577L91.9322 22.9687ZM94.5627 29.9644L119.7 34.0711L128.713 57.9039L112.59 77.6299L87.4529 73.5231L78.4393 49.6904L94.5627 29.9644ZM74.5724 83.4704L12.1065 107L1 77.4872L63.4659 53.9576L74.5724 83.4704ZM68.3726 67.3612L77.3037 64.0272L78.3852 66.9269L69.4541 70.2608L68.3726 67.3612ZM128.864 41.1292L137.795 37.7952L138.877 40.6949L129.945 44.0288L128.864 41.1292ZM112.906 45.9633L116.482 54.4124C116.63 54.7622 117.034 54.9257 117.383 54.7776L119.443 53.9049C119.793 53.7568 119.956 53.3532 119.808 53.0034L116.232 44.5543C116.084 44.2045 116.248 43.8009 116.597 43.6528L119.07 42.6053C119.42 42.4572 119.583 42.0536 119.435 41.7038L118.82 40.25C118.672 39.9002 118.268 39.7367 117.919 39.8848L108.381 43.9252C108.031 44.0734 107.868 44.477 108.016 44.8267L108.631 46.2805C108.779 46.6303 109.183 46.7938 109.532 46.6457L112.005 45.5981C112.355 45.45 112.758 45.6135 112.906 45.9633ZM106.476 58.6511L104.957 55.0598C104.808 54.71 104.972 54.3064 105.321 54.1583L108.887 52.648C109.236 52.4999 109.4 52.0963 109.252 51.7465L108.636 50.2927C108.488 49.943 108.085 49.7795 107.735 49.9276L104.17 51.4379C103.821 51.586 103.417 51.4225 103.269 51.0727L102.901 50.2019C102.752 49.8521 102.916 49.4485 103.265 49.3004L107.365 47.5638C107.715 47.4157 107.878 47.0121 107.73 46.6623L107.115 45.2086C106.967 44.8588 106.563 44.6953 106.214 44.8434L98.7395 48.0096C98.3899 48.1577 98.2264 48.5613 98.3745 48.9111L103.102 60.0807C103.25 60.4304 103.653 60.5939 104.003 60.4458L106.111 59.5526C106.461 59.4045 106.624 59.0008 106.476 58.6511ZM93.4035 51.0169L95.8636 56.8296C95.8785 56.8647 95.8621 56.9052 95.827 56.92C95.806 56.929 95.7819 56.9269 95.7627 56.9145L88.9256 52.4943C88.7343 52.3706 88.4942 52.3497 88.2844 52.4386L86.3879 53.242C86.0383 53.3901 85.8749 53.7937 86.0229 54.1435L90.7502 65.313C90.8983 65.6628 91.3017 65.8263 91.6513 65.6782L93.7599 64.785C94.1095 64.6368 94.2729 64.2332 94.1249 63.8835L91.6478 58.0307C91.6367 58.0043 91.649 57.9739 91.6753 57.9627C91.6911 57.956 91.709 57.9575 91.7234 57.9667L98.6524 62.3887C98.8432 62.5105 99.0817 62.5305 99.2902 62.4422L101.14 61.6584C101.49 61.5103 101.653 61.1067 101.505 60.7569L96.7782 49.5873C96.6301 49.2375 96.2267 49.074 95.8771 49.2222L93.7685 50.1154C93.4189 50.2635 93.2555 50.6671 93.4035 51.0169ZM132.428 24.5296L194.893 1L206 30.5128L143.534 54.0424L132.428 24.5296Z" stroke="#B7B7B7"/></svg>