<svg width="97" height="62" viewBox="0 0 97 62" fill="none" xmlns="http://www.w3.org/2000/svg"><path d="M12.2798 1.61804L13.2636 4.6459L13.3758 4.99139H13.7391H16.9228L14.3471 6.86271L14.0532 7.07624L14.1655 7.42173L15.1493 10.4496L12.5736 8.57827L12.2798 8.36475L11.9859 8.57827L9.41021 10.4496L10.394 7.42173L10.5063 7.07624L10.2124 6.86271L7.63673 4.99139H10.8204H11.1837L11.2959 4.6459L12.2798 1.61804ZM4.27975 54.618L4.81454 56.2639L4.9268 56.6094H5.29007H7.02066L5.62058 57.6266L5.32669 57.8402L5.43895 58.1857L5.97373 59.8316L4.57365 58.8143L4.27975 58.6008L3.98586 58.8143L2.58578 59.8316L3.12056 58.1857L3.23282 57.8402L2.93893 57.6266L1.53885 56.6094H3.26944H3.63271L3.74497 56.2639L4.27975 54.618ZM46.0656 27.9184H47.0696L46.2573 28.5086L45.9634 28.7221L46.0757 29.0676L46.3859 30.0225L45.5736 29.4324L45.2798 29.2188L44.9859 29.4324L44.1736 30.0225L44.4838 29.0676L44.5961 28.7221L44.3022 28.5086L43.4899 27.9184H44.494H44.8572L44.9695 27.5729L45.2798 26.618L45.59 27.5729L45.7023 27.9184H46.0656ZM90.7798 14.618L91.6513 17.3004L91.7636 17.6459H92.1268H94.9473L92.6655 19.3037L92.3716 19.5172L92.4839 19.8627L93.3554 22.5451L91.0736 20.8873L90.7798 20.6738L90.4859 20.8873L88.2041 22.5451L89.0757 19.8627L89.1879 19.5172L88.894 19.3037L86.6123 17.6459H89.4327H89.7959L89.9082 17.3004L90.7798 14.618Z" stroke="#C3C3C3"/></svg>